<svg xmlns="http://www.w3.org/2000/svg" xmlns:xlink="http://www.w3.org/1999/xlink" viewBox="0 0 72 75" height="60"><!-- height was 75, then 72, now trying to match current production, which is 60. Who knows what is next? --><title id="logo-title">State of California Franchise Tax Board</title><defs><style type="text/css">.cls-1{fill:url(#linear-gradient);}.cls-2{fill:#fff;}.cls-3{fill:#ffd497;}.cls-4{fill:#fbb034;}.cls-5{fill:#0067ac;}#pathLogoText path {transition: fill 0.3s ease-out, fill-opacity 0.3s ease-out;}@media screen and (max-width: 380px){#pathLogoText path{fill-opacity:0;}}@media screen and (max-width: 600px){#pathLogoText path{fill:white;}#shapeLogo {position:absolute;top:6px;}}</style><linearGradient id="linear-gradient" x1="36" x2="36" y2="71.85" gradientUnits="userSpaceOnUse"><stop offset="0" stop-color="#fbb034"></stop><stop offset="0.42" stop-color="#939266"></stop><stop offset="1" stop-color="#0067ac"></stop></linearGradient></defs><g id="logo"><path class="cls-1" d="M72,36A36,36,0,1,1,36,0,36,36,0,0,1,72,36Z"></path><path class="cls-2" d="M36,2.84A33.16,33.16,0,1,0,69.16,36,33.16,33.16,0,0,0,36,2.84Z"></path><path class="cls-3" d="M60.13,46.16a.35.35,0,0,0-.09-.44L46.45,35.77l16.74-1.83a.33.33,0,0,0,0-.66L46.45,31.45,60,21.49a.34.34,0,0,0,.09-.43.35.35,0,0,0-.42-.14L44.3,27.71,51.08,12.3a.33.33,0,0,0-.13-.42.35.35,0,0,0-.44.09L40.56,25.55,38.72,8.81a.32.32,0,0,0-.32-.29.33.33,0,0,0-.33.29L36.24,25.55l-2.55-3.48V29L45.52,40l14.19,6.25A.34.34,0,0,0,60.13,46.16Z"></path><polygon class="cls-4" points="18.17 14.4 33.69 14.4 33.69 28.96 53.36 47.39 53.36 48.59 55.23 50.38 53 52.5 53 55.6 53.88 55.6 53.88 57.52 43.61 57.52 43.61 55.8 39.22 51.67 37.12 51.67 34.97 49.67 31.36 49.67 31.36 46.95 30.48 46.12 30.48 45.22 26.52 41.51 26.52 40.07 26.98 40.07 26.98 38.39 25.77 38.39 24.44 37.15 24.44 35.21 22.69 33.58 22.69 32.04 19.81 29.34 19.81 25.02 17.59 22.92 17.57 21.11 18.7 20.04 18.7 16.07 18.17 15.57 18.17 14.4"></polygon><path class="cls-5" d="M21.71,49.08l2.94,2.6-.49.55-2.29-2-1.29,1.46,2.17,1.93-.48.54L20.09,52.2l-1.38,1.55,2.34,2.08-.51.57-3-2.65Z"></path><path class="cls-5" d="M23.84,56.39c-.19.39-.51,1.13.77,1.79s1.66,0,1.81-.32c.32-.63-.12-1-.79-1.6A5.62,5.62,0,0,1,24.37,55a1.42,1.42,0,0,1,0-1.39c.58-1.13,1.9-1.07,2.95-.53a2.46,2.46,0,0,1,1.28,1.35,1.64,1.64,0,0,1-.15,1.12l-.8-.41c.32-.71-.19-1.17-.73-1.45-.77-.4-1.41-.29-1.7.27s0,.82.58,1.33c1.15,1,1.28,1.13,1.49,1.51a1.44,1.44,0,0,1,0,1.4c-.51,1-1.66,1.33-3.08.6a2.53,2.53,0,0,1-1.4-1.52A1.92,1.92,0,0,1,23,56Z"></path><path class="cls-5" d="M29.8,60.76l1.26-5.37-2-.47.17-.72,4.91,1.15-.17.72-2-.48L30.64,61Z"></path><path class="cls-5" d="M38.17,56.36a7.75,7.75,0,0,1-1.29,1l-.1-.86a9.32,9.32,0,0,0,1.35-1.1l.76-.08.65,6-.83.08Z"></path><path class="cls-5" d="M42.05,59.35a.82.82,0,0,0,1.17.56c1.26-.39.81-1.87.5-2.75a1.48,1.48,0,0,1-1.06,1.12A1.78,1.78,0,0,1,40.35,57a1.82,1.82,0,0,1,1.27-2.41,1.9,1.9,0,0,1,2.28.84,5.83,5.83,0,0,1,.64,1.49c.26.84.92,3-1.18,3.67a1.58,1.58,0,0,1-2.18-1Zm-.24-4.14a1.13,1.13,0,0,0-.64,1.55,1.11,1.11,0,0,0,1.44.84,1.09,1.09,0,0,0,.68-1.49A1.17,1.17,0,0,0,41.81,55.21Z"></path><path class="cls-5" d="M46.57,58.45l.6-2.12A9,9,0,0,0,47.46,55a1.69,1.69,0,0,0-.15-1.14A.9.9,0,0,0,46,53.46a.94.94,0,0,0-.33,1.4l-.78.45a1.67,1.67,0,0,1-.18-1.42,1.94,1.94,0,0,1,.91-1,1.67,1.67,0,0,1,2.48.59c.19.33.31.6.16,1.63,0,.28-.31,1.34-.38,1.58l-.41,1.38,2.47-1.42.34.6L47,59.13Z"></path><path class="cls-5" d="M51.39,54.57a.82.82,0,0,0,1.3,0c1-.88-.06-2-.72-2.7a1.45,1.45,0,0,1-.48,1.46,1.77,1.77,0,0,1-2.63-.18A1.81,1.81,0,0,1,49,50.44a1.9,1.9,0,0,1,2.41-.21,5.35,5.35,0,0,1,1.21,1.08c.6.65,2.12,2.35.49,3.82a1.57,1.57,0,0,1-2.38,0Zm-2-3.65a1.14,1.14,0,0,0,.07,1.68,1.12,1.12,0,0,0,1.67.15,1.1,1.1,0,0,0,0-1.64A1.18,1.18,0,0,0,49.42,50.92Z"></path><path class="cls-5" d="M17.87,44.66h-3.1V27.33H25.4V30H17.87v4.4H25v2.69H17.87Z"></path><path class="cls-5" d="M37,44.66h-3V30H28.37V27.33H42.51V30H37Z"></path><path class="cls-5" d="M52,44.66H45.53V27.33h6.31c2,0,3.29.2,4.44,1.32a4.32,4.32,0,0,1,1.28,3.23,3.89,3.89,0,0,1-2.12,3.7,4.14,4.14,0,0,1,2.63,4.17,4.87,4.87,0,0,1-2.17,4.09A6.76,6.76,0,0,1,52,44.66ZM48.52,42h3.55c1.39,0,2.87-.66,2.87-2.49,0-1.54-1.06-2.49-2.78-2.49H48.52Zm0-7.71h2.83c2.09,0,3.07-.71,3.07-2.24,0-2-1.35-2.12-3-2.12H48.52Z"></path></g></svg>