<svg width="441" height="447" viewBox="0 0 441 447" fill="none" xmlns="http://www.w3.org/2000/svg">
<rect width="441" height="447" fill="#DFF1FF"/>
<path d="M416.339 421.871H24.3733V24.6971H416.339V421.871ZM37.0422 408.968H403.606V37.5344H37.0422V408.968Z" fill="#0A141E"/>
<path d="M24.3733 292.781C16.8491 271.017 12.669 247.622 12.669 223.317C12.669 198.945 16.8491 175.617 24.3733 153.852V121.335C8.81037 151.897 0 186.564 0 223.251C0 260.004 8.81037 294.671 24.3733 325.233V292.781Z" fill="#B9921D"/>
<path d="M416.275 325.363C431.902 294.736 440.713 260.004 440.713 223.251C440.713 186.499 431.902 151.767 416.275 121.14V153.656C423.863 175.421 427.979 198.88 427.979 223.251C427.979 247.622 423.799 271.016 416.275 292.846V325.363Z" fill="#B9921D"/>
<path d="M403.992 321.323C369.136 388.116 299.875 433.73 220.324 433.73C141.031 433.73 72.0266 388.441 37.0422 322.105V347.128C76.5927 407.079 143.989 446.568 220.324 446.568C296.917 446.568 364.506 406.753 403.992 346.476V321.323Z" fill="#B9921D"/>
<path d="M220.324 12.8373C299.939 12.8373 369.136 58.4521 403.992 125.245V100.026C364.506 39.8151 296.917 0 220.324 0C143.989 0 76.5927 39.5544 37.0422 99.4398V124.463C72.0266 58.126 141.031 12.8373 220.324 12.8373Z" fill="#B9921D"/>
<path d="M62.8804 333.873H101.856V239.655H178.815V333.873H217.79V106.452H178.815V200.669H101.856V106.452H62.8804V333.873ZM79.12 317.629V122.696H85.6161V317.629H79.12ZM195.055 317.629V223.411H101.856V216.914H195.055V122.696H201.55V317.629H195.055ZM309.725 333.873C347.708 333.873 381.181 309.507 381.181 269.527C381.181 211.409 282.75 201.301 282.75 166.24C282.75 148.055 300.298 145.122 314.913 145.122C333.453 145.122 345.769 160.69 352.581 167.549L379.872 140.249C364.625 124.952 348.385 106.452 314.913 106.452C277.877 106.452 243.774 125.313 243.774 166.24C243.774 229.593 342.521 244.213 342.521 269.527C342.521 287.757 325.965 295.202 309.725 295.202C296.102 295.202 274.314 281.259 266.51 268.895L234.03 289.697C249.638 314.064 282.118 333.873 309.725 333.873ZM309.725 317.629C292.177 317.629 272.058 306.889 258.074 293.578L263.622 290.013C276.254 301.7 294.794 311.447 309.725 311.447C335.078 311.447 358.761 297.143 358.761 269.527C358.761 227.653 260.013 220.794 260.013 166.24C260.013 134.699 286.99 122.696 314.913 122.696C334.085 122.696 345.453 129.825 356.821 140.249L352.581 144.807C342.205 135.375 329.529 128.878 314.913 128.878C290.554 128.878 266.51 137.948 266.51 166.24C266.51 215.605 364.941 222.78 364.941 269.527C364.941 300.391 338.642 317.629 309.725 317.629Z" fill="#0A141E"/>
</svg>
