<svg xmlns="http://www.w3.org/2000/svg" width="200" height="200" viewBox="0 0 200 200" version="1.1"><path d="M 22 37.045 C 22 38.772, 26.769 42.997, 30.760 44.805 C 34.083 46.311, 40.624 46.556, 89.500 47 C 151.349 47.562, 148.760 47.249, 160.041 55.530 C 182.797 72.234, 181.464 105.351, 157.500 118.647 C 130.404 133.681, 101.603 98.238, 124.546 78.094 C 128.791 74.367, 128.674 73.659, 124.035 74.990 C 92.058 84.161, 108.354 132.210, 143.500 132.379 C 202.427 132.664, 199.557 45.589, 140.357 37.031 C 130.807 35.650, 22 35.664, 22 37.045 M 42 55.927 C 42 63.527, 55.199 66, 95.766 66 C 133.744 66, 138.158 66.446, 145.352 71.008 C 161.072 80.978, 158.063 104.083, 140.401 109.028 C 134.906 110.566, 137.551 112.858, 144.934 112.955 C 176.907 113.375, 172.953 64.995, 140.320 56.495 C 133.625 54.751, 42 54.222, 42 55.927 M 65 137.965 L 65 200 70.500 200 L 76 200 75.994 145.750 C 75.989 88.598, 75.825 86.323, 71.354 81.009 C 64.550 72.922, 65 68.885, 65 137.965 M 86.666 76.667 C 86.300 77.033, 86 104.933, 86 138.667 L 86 200 91.500 200 L 97 200 97 143.734 C 97 91.063, 96.883 87.250, 95.165 84.047 C 93.163 80.315, 87.734 75.600, 86.666 76.667 M 130.589 85.077 C 123.605 93.377, 134.400 103.721, 142.644 96.630 C 148.568 91.534, 144.585 82, 136.533 82 C 134.014 82, 132.533 82.767, 130.589 85.077 M 107.346 137.250 C 107.699 141.787, 107.991 157.762, 107.994 172.750 L 108 200 113 200 L 118 200 118 169.934 C 118 137.812, 118.009 137.876, 112.684 132.250 C 107.542 126.818, 106.602 127.698, 107.346 137.250" stroke="none" fill="#f3f7f8" fill-rule="evenodd"/><path d="M 0 100 L 0 200 32.492 200 L 64.985 200 65.242 137.750 L 65.500 75.500 69.640 79.523 C 76.015 85.716, 75.988 85.440, 75.994 145.750 L 76 200 81 200 L 86 200 86 138.559 C 86 72.754, 85.875 74.130, 91.380 79.322 C 97.091 84.708, 97 83.660, 97 144.065 L 97 200 102.619 200 L 108.238 200 107.839 164.500 C 107.409 126.190, 107.346 126.610, 112.684 132.250 C 118.009 137.876, 118 137.811, 118 169.945 L 118 200.022 159.250 199.761 L 200.500 199.500 200.755 99.750 L 201.010 0 100.505 0 L 0 0 0 100 M 0.481 100.500 C 0.481 155.500, 0.602 178.147, 0.750 150.826 C 0.898 123.506, 0.898 78.506, 0.750 50.826 C 0.602 23.147, 0.481 45.500, 0.481 100.500 M 22 37.045 C 22 38.772, 26.769 42.997, 30.760 44.805 C 34.083 46.311, 40.624 46.556, 89.500 47 C 151.349 47.562, 148.760 47.249, 160.041 55.530 C 182.797 72.234, 181.464 105.351, 157.500 118.647 C 130.404 133.681, 101.603 98.238, 124.546 78.094 C 128.791 74.367, 128.674 73.659, 124.035 74.990 C 92.058 84.161, 108.354 132.210, 143.500 132.379 C 202.427 132.664, 199.557 45.589, 140.357 37.031 C 130.807 35.650, 22 35.664, 22 37.045 M 42 55.927 C 42 63.527, 55.199 66, 95.766 66 C 133.744 66, 138.158 66.446, 145.352 71.008 C 161.072 80.978, 158.063 104.083, 140.401 109.028 C 134.906 110.566, 137.551 112.858, 144.934 112.955 C 176.907 113.375, 172.953 64.995, 140.320 56.495 C 133.625 54.751, 42 54.222, 42 55.927 M 130.589 85.077 C 123.605 93.377, 134.400 103.721, 142.644 96.630 C 148.568 91.534, 144.585 82, 136.533 82 C 134.014 82, 132.533 82.767, 130.589 85.077" stroke="none" fill="#103776" fill-rule="evenodd"/></svg>